<svg width="84" height="58" viewBox="0 0 84 58" fill="none" xmlns="http://www.w3.org/2000/svg">
<path d="M0 0H84V58H0V0Z" fill="white" fill-opacity="0.01"/>
<mask id="path-2-outside-1_4_23" maskUnits="userSpaceOnUse" x="29.2501" y="10.5" width="28" height="37" fill="black">
<rect fill="white" x="29.2501" y="10.5" width="28" height="37"/>
<path d="M33.2501 14.5L54.2501 29L33.2501 43.5"/>
</mask>
<path d="M34.9546 12.0313C33.5912 11.0899 31.7228 11.432 30.7814 12.7954C29.84 14.1588 30.1821 16.0273 31.5455 16.9687L34.9546 12.0313ZM54.2501 29L55.9546 31.4687C56.7658 30.9086 57.2501 29.9857 57.2501 29C57.2501 28.0143 56.7658 27.0914 55.9546 26.5313L54.2501 29ZM31.5455 41.0313C30.1821 41.9727 29.84 43.8412 30.7814 45.2046C31.7228 46.568 33.5912 46.9101 34.9546 45.9687L31.5455 41.0313ZM31.5455 16.9687L52.5455 31.4687L55.9546 26.5313L34.9546 12.0313L31.5455 16.9687ZM52.5455 26.5313L31.5455 41.0313L34.9546 45.9687L55.9546 31.4687L52.5455 26.5313Z" fill="black" mask="url(#path-2-outside-1_4_23)"/>
</svg>
